<svg width="225.00000000000003" height="743.0000000000001" xmlns="http://www.w3.org/2000/svg">
 <defs>
  <linearGradient id="5d4a4877-cb40-4911-af92-0c05dcba9673" x1="0.500026" y1="1.000066" x2="0.500026" y2="-0.00019">
   <stop offset="0" stop-color="gray" stop-opacity="0.25"/>
   <stop offset="0.54" stop-color="gray" stop-opacity="0.12"/>
   <stop offset="1" stop-color="gray" stop-opacity="0.1"/>
  </linearGradient>
 </defs>
 <title>ethereum</title>
 <g>
  <title>background</title>
  <rect x="-1" y="-1" width="227" height="745" id="canvas_background" fill="none"/>
 </g>
 <g>
  <title>Layer 1</title>
  <polyline points="131.01002502441406,101.75003051757812 131.01002502441406,213.94009399414062 182.9300079345703,147.1800537109375 " fill="none" stroke="#535461" stroke-miterlimit="10" stroke-width="2" id="svg_47"/>
  <line x1="78.160003" y1="136.980046" x2="131.010003" y2="213.940046" fill="none" stroke="#535461" stroke-miterlimit="10" stroke-width="2" id="svg_48"/>
  <g opacity="0.7" id="svg_49">
   <path d="m226.510003,88.560046a41.78,41.78 0 0 0 -54.68001,-39.71a50.18,50.18 0 0 0 0.53,-7.09a41.76,41.76 0 0 0 -83.41,-3a41.78,41.78 0 0 0 -54.71,39.71c0,21 15.43,50.75 35.55,56l3.13,1.79l-1.7,5.82l10.06,0l-2.16,-5.81l3.11,-1.78c15.54,-4.08 28.29,-22.8 33.28,-40.76a30.51,30.51 0 0 0 8.91,4.05l3.13,1.79l-1.7,5.82l10.06,0l-2.19,-5.83l3.11,-1.78a29.13,29.13 0 0 0 6.64,-2.69c2.69,20.15 17,44.74 35.09,49.49l3.13,1.79l-1.7,5.82l10.06,0l-2.19,-5.83l3.11,-1.78c20.15,-5.27 35.54001,-35.07 35.54001,-56.02z" fill="url(#5d4a4877-cb40-4911-af92-0c05dcba9673)" id="svg_50"/>
  </g>
  <polygon points="82.8699951171875,139.97003173828125 73.13999938964844,139.97003173828125 74.83999633789062,134.13006591796875 80.67999267578125,134.13006591796875 82.8699951171875,139.97003173828125 " fill="#333333" id="svg_51"/>
  <path d="m118.120003,78.390046c0,22.32 -18.09,55 -40.41,55s-40.41,-32.7 -40.41,-55a40.41,40.41 0 0 1 80.81,0l0.01,0z" fill="#d23137" id="svg_52"/>
  <polygon points="80.67999267578125,134.38006591796875 74.83999633789062,134.38006591796875 71.42999267578125,132.4300537109375 84.08999633789062,132.4300537109375 80.67999267578125,134.38006591796875 " fill="#535461" id="svg_54"/>
  <path d="m63.119993,46.980046s-17,9.25 -19.47,27.75" fill="#fff" opacity="0.1" id="svg_55"/>
  <polygon points="135.7100067138672,104.45001220703125 125.98001861572266,104.45001220703125 127.68000030517578,98.61004638671875 133.52000427246094,98.61004638671875 135.7100067138672,104.45001220703125 " fill="#6c63ff" id="svg_56"/>
  <polygon points="133.52000427246094,98.85006713867188 127.68000030517578,98.85006713867188 124.2699966430664,96.9100341796875 136.9300079345703,96.9100341796875 133.52000427246094,98.85006713867188 " fill="#535461" id="svg_59"/>
  <polygon stroke-opacity="0" stroke="#333333" fill="#333333" fill-opacity="0" points="135.7100067138672,104.45001220703125 125.98001861572266,104.45001220703125 127.68000030517578,98.61004638671875 133.52000427246094,98.61004638671875 135.7100067138672,104.45001220703125 " opacity="0.07" id="svg_57"/>
  <path d="m115.990003,11.460046s-17,9.25 -19.47001,27.75" fill="#fff" opacity="0.1" id="svg_60"/>
  <polygon points="188.11000061035156,149.74008178710938 178.37001037597656,149.74008178710938 180.0800018310547,143.9000244140625 185.92002868652344,143.9000244140625 188.11000061035156,149.74008178710938 " fill="#333333" id="svg_61"/>
  <path d="m223.400003,88.150046c0,22.32 -18.09,55 -40.41,55s-40.41,-32.7 -40.41,-55a40.41,40.41 0 0 1 80.81,0l0.01,0z" fill="#06cc9c" id="svg_62"/>
  <polygon points="185.92002868652344,144.1500244140625 180.0800018310547,144.1500244140625 176.67002868652344,142.20004272460938 189.3300018310547,142.20004272460938 185.92002868652344,144.1500244140625 " fill="#535461" id="svg_64"/>
  <path d="m168.389993,56.750046s-17,9.25 -19.47,27.75" fill="#fff" opacity="0.1" id="svg_65"/>
  <path d="m171.010003,42.850046c0,22.32 -18.09,55 -40.41,55s-40.41,-32.7 -40.41,-55a40.41,40.41 0 0 1 80.81,0l0.01,0z" fill="#fbd54e" id="svg_58"/>
  <path d="m197.760003,95.690046l-13.9,8.49l-13.91,-8.49l13.91,-23.84l13.9,23.84zm-27.80001,-12.62l-13.91,-8.49l13.91,20.26l13.91001,-20.26l-13.91001,8.49z" opacity="0.2" id="svg_66"/>
  <path d="m144.899993,47.480046l-13.89999,8.49l-13.88,-8.49l13.91,-23.86l13.87,23.86l-0.00001,0zm-27.76999,-12.64l-0.01,15.36l13.91,20.26l13.91,-20.26l-13.91,8.49l-13.9,-23.85z" opacity="0.2" id="svg_67"/>
  <path d="m90.200003,86.420046l-13.9,8.49l-13.91,-8.49l13.91,-23.86l13.9,23.86zm-27.8,-12.64l-13.91,-8.49l13.91,20.26l13.91,-20.26l-13.91,8.49z" opacity="0.2" id="svg_68"/>
  <path d="m98.639993,372.430046c-5.74,9.71 -4.69999,27.46 3.27,59.92c0,0 9.11,24.73 -9.11,45.55s-22.12,39 -22.12,39s-57.2,35.44 -64.42,51.4c10.74,-23.75 -24.52,10.25 16.27,20.17c24.07,5.86 29.28,-2.6 41.64,12.36s40.34001,13 57.91,11.06s47.5,-22.77 47.5,-22.77s-33.18,-139.89 -26,-153.56c6.77,-12.93 31.12,-37.5 -16.58,-69.32c-9.53,-6.3 -22.55,-3.64 -28.36,6.19z" fill="#f0898b" id="svg_70"/>
  <path d="m98.639993,372.430046c-5.74,9.71 -4.69999,27.46 3.27,59.92c0,0 9.11,24.73 -9.11,45.55s-22.12,39 -22.12,39s-57.57,35.28 -64.42,51.4c10.09,-23.75 -24.52,10.25 16.27,20.17c24.07,5.86 29.28,-2.6 41.64,12.36s40.34001,13 57.91,11.06s47.5,-22.77 47.5,-22.77s-33.18,-139.89 -26,-153.56c6.77,-12.93 31.12,-37.5 -16.58,-69.32c-9.53,-6.3 -22.55,-3.64 -28.36,6.19z" opacity="0.1" id="svg_71"/>
  <path d="m81.120003,595.010046s-8.46,37.74 -19.52,42.94s-29.28,32.53 -31.23,42.29l-16.59,35.46l15,0l52.34,-59.52s20.52999,-8 24.73,-24.73c0.65,-2.6 18.22,-48.15 18.22,-48.15l-42.95,11.71z" fill="#fdb797" id="svg_72"/>
  <path d="m129.880003,583.300046s15.62,41.64 13,53.36s-5.86001,26.68 0,46.2l10.08999,43.27l13,-0.65l6.83,-90.77s7.16,-13 0,-31.88s-12.36,-42.29 -12.36,-42.29l-30.56,22.76l0.00001,0z" fill="#fdb797" id="svg_73"/>
  <path d="m133.120003,370.530046s3.89999,-39.69 13,-63.77c0,0 2.6,-11.71 0,-29.28l-3.9,-49.45s0.65,-22.77 -13.66,-22.77s0.64999,25.38 0.64999,25.38l-1.3,64.42s-8.45999,65.72 -14.31,72.88l19.52,2.59l0.00001,0z" fill="#fdb797" id="svg_74"/>
  <path d="m133.120003,370.530046s3.89999,-39.69 13,-63.77c0,0 2.6,-11.71 0,-29.28l-3.9,-49.45s0.65,-22.77 -13.66,-22.77s0.64999,25.38 0.64999,25.38l-1.3,64.42s-8.45999,65.72 -14.31,72.88l19.52,2.59l0.00001,0z" opacity="0.05" id="svg_75"/>
  <path d="m129.880003,323.680046s-2.60001,31.23 5.20999,41.64c0,0 -18.21999,-9.76 -33.82999,-1.3c0,0 9.75999,-26.68 6.50999,-38.39l22.11001,-1.95z" fill="#fdb797" id="svg_76"/>
  <path d="m98.639993,365.920046c-5.74,9.71 -8.61,27.46 -0.63999,59.92c0,0 13,24.73 -5.21,45.55s-22.12,39 -22.12,39s-48.15,44.9 -64.42,51.4c0,0 -7.81,14.31 16.27,20.17s29.28,-2.6 41.64,12.36s40.34,13 57.91,11.06s47.82,-14.64 47.82,-14.64s-27,-148 -19.85,-161.69c6.77,-12.93 24.61,-37.5 -23.08,-69.32c-9.49,-6.3 -22.51,-3.63 -28.32,6.19l-0.00001,0z" opacity="0.1" id="svg_77"/>
  <path d="m98.639993,364.620046c-5.74,9.71 -8.61,27.46 -0.63999,59.92c0,0 13,24.73 -5.21,45.55s-22.12,39 -22.12,39s-48.15,44.9 -64.42,51.4c0,0 -7.81,14.31 16.27,20.17s29.28,-2.6 41.64,12.36s40.34,13 57.91,11.06s47.82,-14.64 47.82,-14.64s-27,-148 -19.85,-161.69c6.77,-12.93 24.61,-37.5 -23.08,-69.32c-9.49,-6.3 -22.51,-3.64 -28.32,6.19l-0.00001,0z" fill="#06cc9c" id="svg_78"/>
  <circle cx="118.170003" cy="380.300046" r="22.120001" fill="#fdb797" id="svg_79"/>
  <path d="m110.360003,389.400046l-4.55,68.32l15,72.88s-13.66001,48.15 0,43.59s14.31,-44.24 14.31,-44.24l-9.14,-76.1s11.06,-57.26 9.11,-69s-24.73,4.55 -24.73,4.55z" opacity="0.1" id="svg_80"/>
  <path d="m110.360003,388.100046l-4.55,68.32l15,72.88s-13.69,48.15 -0.04001,43.55s14.35001,-44.2 14.35001,-44.2l-9.11,-76.13s11.06,-57.26 9.11,-69s-24.76,4.58 -24.76,4.58z" fill="#fdb797" id="svg_81"/>
  <path d="m107.430003,344.850046c9.20999,0 17.58999,-2.63 22,-10c0.06,-5.75 0.41,-9.88 0.41,-9.88l-22.12,2c1.4,5 0.63,9.32 -1,16.59c0.47,-0.01 0.3,1.29 0.71,1.29z" opacity="0.03" id="svg_82"/>
  <circle cx="107.760003" cy="320.440046" r="25.379999" fill="#fdb797" id="svg_83"/>
  <path d="m135.409993,418.360046s2,9.76 14.64,10.74" opacity="0.03" id="svg_84"/>
  <path d="m68.070003,593.060046c-12.36001,-15 -17.57,-6.51 -41.64,-12.36s-16.31,-20.17 -16.31,-20.17c16.27,-6.51 64.42,-51.4 64.42,-51.4s3.9,-18.22 22.12,-39s5.21,-45.55 5.21,-45.55c-8,-32.45 -5.11,-50.21 0.64,-59.92a19.56,19.56 0 0 1 15.06999,-9.49a19.72,19.72 0 0 0 -19,9.49c-5.74,9.71 -8.61,27.46 -0.63999,59.92c0,0 13,24.73 -5.21,45.55s-22.12,39 -22.12,39s-48.15,44.9 -64.42,51.4c0,0 -7.81,14.31 16.27,20.17s29.28,-2.6 41.64,12.36c8.55,10.35 24.56,12.61 39.44,12.37c-13.64,-0.22 -27.67,-2.92 -35.47,-12.37z" opacity="0.03" id="svg_85"/>
  <path d="m116.969993,349.850046c-0.82,-1.82 -2.57,-3 -3.89,-4.51c-4.29,-4.87 -3.55,-12.17 -3.8,-18.66a50.84,50.84 0 0 0 -4.08999,-18a15.28,15.28 0 0 0 4.13,-3a16.2,16.2 0 0 0 3.32999,-16.83a19.55,19.55 0 0 1 -10.16,2.94c-3.28,0 -6.51,-0.79 -9.79,-1a28.59,28.59 0 0 0 -15.93,3.55c-0.68,-0.07 -1.36,-0.15 -2,-0.26c-12.81,-1.94 -21.71,14.37 -34.53,21.05c-9,4.69 -12.63,15.63 -14,25.67s-1.58,20.72 -6.8,29.41c-3.58,5.94 -11.59,9.37 -13.09,16.14c-2.93,13.2 0.32,9.94 3.57,27.51c1.08,5.81 2.47,8.13 3.84,13.87c1.48,6.2 -0.16,12.67 -0.38,19c-0.71,20.92 16.34,40.95 37.11,43.58a34.11,34.11 0 0 1 -8.89,20.46c8.6,2.82 18.11,-0.44 25.69,-5.39a61.55,61.55 0 0 0 25.26,-34.53c5.11,-18.14 1.59,-37.42 0.78,-56.25s2.16,-39.77 16.48,-52c3.99,-3.44 9.31,-7.94 7.16,-12.75z" opacity="0.1" id="svg_86"/>
  <path d="m115.670003,349.220046c-0.82,-1.82 -2.57,-3 -3.89,-4.51c-4.29,-4.87 -3.55,-12.17 -3.8,-18.66a50.84,50.84 0 0 0 -4.09,-18a15.28,15.28 0 0 0 4.13,-3a16.2,16.2 0 0 0 3.33,-16.85a19.55,19.55 0 0 1 -10.16,2.94c-3.28,0 -6.51,-0.79 -9.79001,-1a28.59,28.59 0 0 0 -15.93,3.55c-0.68,-0.07 -1.36,-0.15 -2,-0.26c-12.81,-1.94 -21.71,14.37 -34.53,21.05c-9,4.69 -12.63,15.63 -14,25.67s-1.58,20.72 -6.8,29.41c-3.58,5.94 -11.59,9.37 -13.09,16.14c-2.93,13.2 0.32,9.94 3.57,27.51c1.08,5.81 2.47,8.13 3.84,13.87c1.48,6.2 -0.16,12.67 -0.38,19c-0.71,20.92 16.34,40.95 37.11,43.58a34.11,34.11 0 0 1 -8.89,20.46c8.6,2.82 18.11,-0.44 25.69,-5.39a61.55,61.55 0 0 0 25.35,-34.51c5.11001,-18.14 1.59,-37.42 0.78,-56.25s2.16,-39.77 16.48,-52c3.9,-3.46 9.22001,-7.96 7.07,-12.75l0.00001,0z" fill="#252223" id="svg_87"/>
  <path d="m28.700003,715.710046s3.25,8.46 9.75999,11.06c0,0 16.27001,3.9 5.86001,7.81c-7,2.61 -22.31,-2.62 -31.76,-6.38a6,6 0 0 1 -2.14,-9.59l3.31,-3.55l14.97,0.65z" fill="#333" id="svg_88"/>
  <path d="m166.639993,724.170046s5.63,8.23 12.46,9.79c0,0 16.68,1.33 7,6.8c-6.44,3.64 -22.36,0.9 -32.28,-1.35a6,6 0 0 1 -3.65,-9.21l2.69,-4l13.78,-2.03z" fill="#333" id="svg_89"/>
  <path d="m69.040003,508.850046s14.99999,8.46 31.88,7.81" opacity="0.03" id="svg_90"/>
 </g>
</svg>