<?xml version="1.0" encoding="UTF-8"?>
<svg xmlns="http://www.w3.org/2000/svg" xmlns:xlink="http://www.w3.org/1999/xlink" width="148pt" height="499pt" viewBox="0 0 148 499" version="1.1">
<defs>
<filter id="alpha" filterUnits="objectBoundingBox" x="0%" y="0%" width="100%" height="100%">
  <feColorMatrix type="matrix" in="SourceGraphic" values="0 0 0 0 1 0 0 0 0 1 0 0 0 0 1 0 0 0 1 0"/>
</filter>
<mask id="mask0">
  <g filter="url(#alpha)">
<rect x="0" y="0" width="148" height="499" style="fill:rgb(0%,0%,0%);fill-opacity:0.701961;stroke:none;"/>
  </g>
</mask>
<linearGradient id="linear0" gradientUnits="userSpaceOnUse" x1="0.500026" y1="1.000066" x2="0.500026" y2="-0.00019" gradientTransform="matrix(126.46875,0,0,99.886719,22.523438,9.886719)">
<stop offset="0" style="stop-color:rgb(50.196078%,50.196078%,50.196078%);stop-opacity:0.25098;"/>
<stop offset="0.54" style="stop-color:rgb(50.196078%,50.196078%,50.196078%);stop-opacity:0.121569;"/>
<stop offset="1" style="stop-color:rgb(50.196078%,50.196078%,50.196078%);stop-opacity:0.101961;"/>
</linearGradient>
<clipPath id="clip1">
  <rect x="0" y="0" width="148" height="499"/>
</clipPath>
<g id="surface5" clip-path="url(#clip1)">
<path style=" stroke:none;fill-rule:nonzero;fill:url(#linear0);" d="M 148.992188 67.996094 C 148.988281 59.21875 144.773438 50.976562 137.660156 45.816406 C 130.546875 40.660156 121.390625 39.210938 113.027344 41.921875 C 113.253906 40.382812 113.367188 38.824219 113.375 37.265625 C 113.363281 22.515625 101.664062 10.414062 86.894531 9.886719 C 72.125 9.355469 59.582031 20.585938 58.507812 35.296875 C 50.144531 32.582031 40.980469 34.023438 33.859375 39.183594 C 26.742188 44.339844 22.527344 52.589844 22.523438 61.371094 C 22.523438 75.160156 32.671875 94.691406 45.90625 98.140625 L 47.964844 99.3125 L 46.847656 103.136719 L 53.464844 103.136719 L 52.042969 99.320312 L 54.089844 98.152344 C 64.3125 95.472656 72.699219 83.183594 75.980469 71.390625 C 77.777344 72.585938 79.757812 73.484375 81.839844 74.050781 L 83.898438 75.222656 L 82.78125 79.046875 L 89.398438 79.046875 L 87.957031 75.21875 L 90.003906 74.050781 C 91.527344 73.640625 92.992188 73.046875 94.371094 72.28125 C 96.140625 85.511719 105.554688 101.65625 117.453125 104.777344 L 119.511719 105.953125 L 118.394531 109.773438 L 125.011719 109.773438 L 123.570312 105.945312 L 125.617188 104.777344 C 138.871094 101.316406 148.992188 81.75 148.992188 67.996094 Z M 148.992188 67.996094 "/>
</g>
<mask id="mask1">
  <g filter="url(#alpha)">
<rect x="0" y="0" width="148" height="499" style="fill:rgb(0%,0%,0%);fill-opacity:0.101961;stroke:none;"/>
  </g>
</mask>
<clipPath id="clip2">
  <rect x="0" y="0" width="148" height="499"/>
</clipPath>
<g id="surface8" clip-path="url(#clip2)">
<path style=" stroke:none;fill-rule:nonzero;fill:rgb(100%,100%,100%);fill-opacity:1;" d="M 41.519531 40.695312 C 41.519531 40.695312 30.335938 46.769531 28.710938 58.914062 "/>
</g>
<mask id="mask2">
  <g filter="url(#alpha)">
<rect x="0" y="0" width="148" height="499" style="fill:rgb(0%,0%,0%);fill-opacity:0.0705882;stroke:none;"/>
  </g>
</mask>
<clipPath id="clip3">
  <rect x="0" y="0" width="148" height="499"/>
</clipPath>
<g id="surface11" clip-path="url(#clip3)">
<path style=" stroke:none;fill-rule:nonzero;fill:rgb(0%,0%,0%);fill-opacity:1;" d="M 89.265625 78.429688 L 82.867188 78.429688 L 83.984375 74.59375 L 87.828125 74.59375 Z M 89.265625 78.429688 "/>
</g>
<mask id="mask3">
  <g filter="url(#alpha)">
<rect x="0" y="0" width="148" height="499" style="fill:rgb(0%,0%,0%);fill-opacity:0.101961;stroke:none;"/>
  </g>
</mask>
<clipPath id="clip4">
  <rect x="0" y="0" width="148" height="499"/>
</clipPath>
<g id="surface14" clip-path="url(#clip4)">
<path style=" stroke:none;fill-rule:nonzero;fill:rgb(100%,100%,100%);fill-opacity:1;" d="M 76.296875 17.375 C 76.296875 17.375 65.113281 23.445312 63.488281 35.59375 "/>
</g>
<mask id="mask4">
  <g filter="url(#alpha)">
<rect x="0" y="0" width="148" height="499" style="fill:rgb(0%,0%,0%);fill-opacity:0.101961;stroke:none;"/>
  </g>
</mask>
<clipPath id="clip5">
  <rect x="0" y="0" width="148" height="499"/>
</clipPath>
<g id="surface17" clip-path="url(#clip5)">
<path style=" stroke:none;fill-rule:nonzero;fill:rgb(100%,100%,100%);fill-opacity:1;" d="M 110.761719 47.109375 C 110.761719 47.109375 99.582031 53.183594 97.957031 65.328125 "/>
</g>
<mask id="mask5">
  <g filter="url(#alpha)">
<rect x="0" y="0" width="148" height="499" style="fill:rgb(0%,0%,0%);fill-opacity:0.2;stroke:none;"/>
  </g>
</mask>
<clipPath id="clip6">
  <rect x="0" y="0" width="148" height="499"/>
</clipPath>
<g id="surface20" clip-path="url(#clip6)">
<path style=" stroke:none;fill-rule:nonzero;fill:rgb(0%,0%,0%);fill-opacity:1;" d="M 130.082031 72.675781 L 120.9375 78.25 L 111.789062 72.675781 L 120.9375 57.023438 Z M 111.796875 64.390625 L 102.644531 58.816406 L 111.796875 72.117188 L 120.945312 58.816406 Z M 111.796875 64.390625 "/>
</g>
<mask id="mask6">
  <g filter="url(#alpha)">
<rect x="0" y="0" width="148" height="499" style="fill:rgb(0%,0%,0%);fill-opacity:0.2;stroke:none;"/>
  </g>
</mask>
<clipPath id="clip7">
  <rect x="0" y="0" width="148" height="499"/>
</clipPath>
<g id="surface23" clip-path="url(#clip7)">
<path style=" stroke:none;fill-rule:nonzero;fill:rgb(0%,0%,0%);fill-opacity:1;" d="M 95.3125 41.023438 L 86.167969 46.597656 L 77.039062 41.023438 L 86.1875 25.355469 Z M 77.046875 32.722656 L 77.039062 42.808594 L 86.1875 56.109375 L 95.339844 42.808594 L 86.1875 48.382812 Z M 77.046875 32.722656 "/>
</g>
<mask id="mask7">
  <g filter="url(#alpha)">
<rect x="0" y="0" width="148" height="499" style="fill:rgb(0%,0%,0%);fill-opacity:0.2;stroke:none;"/>
  </g>
</mask>
<clipPath id="clip8">
  <rect x="0" y="0" width="148" height="499"/>
</clipPath>
<g id="surface26" clip-path="url(#clip8)">
<path style=" stroke:none;fill-rule:nonzero;fill:rgb(0%,0%,0%);fill-opacity:1;" d="M 59.332031 66.589844 L 50.1875 72.164062 L 41.039062 66.589844 L 50.1875 50.925781 Z M 41.046875 58.292969 L 31.894531 52.714844 L 41.046875 66.019531 L 50.195312 52.714844 Z M 41.046875 58.292969 "/>
</g>
<mask id="mask8">
  <g filter="url(#alpha)">
<rect x="0" y="0" width="148" height="499" style="fill:rgb(0%,0%,0%);fill-opacity:0.101961;stroke:none;"/>
  </g>
</mask>
<clipPath id="clip9">
  <rect x="0" y="0" width="148" height="499"/>
</clipPath>
<g id="surface29" clip-path="url(#clip9)">
<path style=" stroke:none;fill-rule:nonzero;fill:rgb(0%,0%,0%);fill-opacity:1;" d="M 64.882812 254.378906 C 61.109375 260.753906 61.792969 272.40625 67.035156 293.71875 C 67.035156 293.71875 73.027344 309.957031 61.042969 323.628906 C 49.058594 337.296875 46.492188 349.234375 46.492188 349.234375 C 46.492188 349.234375 8.625 372.398438 4.117188 382.984375 C 10.753906 367.390625 -12.011719 389.710938 14.820312 396.226562 C 30.652344 400.074219 34.078125 394.519531 42.210938 404.339844 C 50.339844 414.164062 68.746094 412.875 80.300781 411.601562 C 91.859375 410.328125 111.546875 396.652344 111.546875 396.652344 C 111.546875 396.652344 89.722656 304.804688 94.445312 295.828125 C 98.898438 287.339844 114.914062 271.207031 83.539062 250.3125 C 77.269531 246.175781 68.703125 247.925781 64.882812 254.378906 Z M 64.882812 254.378906 "/>
</g>
<mask id="mask9">
  <g filter="url(#alpha)">
<rect x="0" y="0" width="148" height="499" style="fill:rgb(0%,0%,0%);fill-opacity:0.0509804;stroke:none;"/>
  </g>
</mask>
<clipPath id="clip10">
  <rect x="0" y="0" width="148" height="499"/>
</clipPath>
<g id="surface32" clip-path="url(#clip10)">
<path style=" stroke:none;fill-rule:nonzero;fill:rgb(0%,0%,0%);fill-opacity:1;" d="M 87.5625 253.132812 C 87.5625 253.132812 90.128906 227.070312 96.113281 211.261719 C 96.113281 211.261719 97.824219 203.574219 96.113281 192.035156 L 93.550781 159.570312 C 93.550781 159.570312 93.976562 144.617188 84.5625 144.617188 C 75.152344 144.617188 84.992188 161.28125 84.992188 161.28125 L 84.136719 203.578125 C 84.136719 203.578125 78.570312 246.730469 74.722656 251.429688 Z M 87.5625 253.132812 "/>
</g>
<mask id="mask10">
  <g filter="url(#alpha)">
<rect x="0" y="0" width="148" height="499" style="fill:rgb(0%,0%,0%);fill-opacity:0.101961;stroke:none;"/>
  </g>
</mask>
<clipPath id="clip11">
  <rect x="0" y="0" width="148" height="499"/>
</clipPath>
<g id="surface35" clip-path="url(#clip11)">
<path style=" stroke:none;fill-rule:nonzero;fill:rgb(0%,0%,0%);fill-opacity:1;" d="M 64.882812 250.105469 C 61.109375 256.480469 59.21875 268.132812 64.460938 289.445312 C 64.460938 289.445312 73.011719 305.683594 61.035156 319.351562 C 49.058594 333.023438 46.484375 344.960938 46.484375 344.960938 C 46.484375 344.960938 14.8125 374.441406 4.109375 378.707031 C 4.109375 378.707031 -1.027344 388.105469 14.8125 391.953125 C 30.652344 395.800781 34.074219 390.246094 42.203125 400.066406 C 50.332031 409.890625 68.738281 408.601562 80.296875 407.328125 C 91.851562 406.054688 111.75 397.714844 111.75 397.714844 C 111.75 397.714844 93.988281 300.542969 98.691406 291.554688 C 103.144531 283.0625 114.882812 266.933594 83.511719 246.039062 C 77.269531 241.902344 68.703125 243.65625 64.882812 250.105469 Z M 64.882812 250.105469 "/>
</g>
<mask id="mask11">
  <g filter="url(#alpha)">
<rect x="0" y="0" width="148" height="499" style="fill:rgb(0%,0%,0%);fill-opacity:0.101961;stroke:none;"/>
  </g>
</mask>
<clipPath id="clip12">
  <rect x="0" y="0" width="148" height="499"/>
</clipPath>
<g id="surface38" clip-path="url(#clip12)">
<path style=" stroke:none;fill-rule:nonzero;fill:rgb(0%,0%,0%);fill-opacity:1;" d="M 72.59375 265.519531 L 69.597656 310.378906 L 79.464844 358.230469 C 79.464844 358.230469 70.480469 389.84375 79.464844 386.851562 C 88.453125 383.855469 88.878906 357.800781 88.878906 357.800781 L 82.867188 307.835938 C 82.867188 307.835938 90.140625 270.242188 88.859375 262.53125 C 87.578125 254.824219 72.59375 265.519531 72.59375 265.519531 Z M 72.59375 265.519531 "/>
</g>
<mask id="mask12">
  <g filter="url(#alpha)">
<rect x="0" y="0" width="148" height="499" style="fill:rgb(0%,0%,0%);fill-opacity:0.0313725;stroke:none;"/>
  </g>
</mask>
<clipPath id="clip13">
  <rect x="0" y="0" width="148" height="499"/>
</clipPath>
<g id="surface41" clip-path="url(#clip13)">
<path style=" stroke:none;fill-rule:nonzero;fill:rgb(0%,0%,0%);fill-opacity:1;" d="M 70.664062 236.269531 C 76.722656 236.269531 82.234375 234.542969 85.136719 229.703125 C 85.175781 225.929688 85.40625 223.21875 85.40625 223.21875 L 70.855469 224.53125 C 71.777344 227.8125 71.269531 230.648438 70.199219 235.421875 C 70.507812 235.417969 70.394531 236.269531 70.664062 236.269531 Z M 70.664062 236.269531 "/>
</g>
<mask id="mask13">
  <g filter="url(#alpha)">
<rect x="0" y="0" width="148" height="499" style="fill:rgb(0%,0%,0%);fill-opacity:0.0313725;stroke:none;"/>
  </g>
</mask>
<clipPath id="clip14">
  <rect x="0" y="0" width="148" height="499"/>
</clipPath>
<g id="surface44" clip-path="url(#clip14)">
<path style=" stroke:none;fill-rule:nonzero;fill:rgb(0%,0%,0%);fill-opacity:1;" d="M 89.070312 284.535156 C 89.070312 284.535156 90.386719 290.941406 98.699219 291.585938 "/>
</g>
<mask id="mask14">
  <g filter="url(#alpha)">
<rect x="0" y="0" width="148" height="499" style="fill:rgb(0%,0%,0%);fill-opacity:0.0313725;stroke:none;"/>
  </g>
</mask>
<clipPath id="clip15">
  <rect x="0" y="0" width="148" height="499"/>
</clipPath>
<g id="surface47" clip-path="url(#clip15)">
<path style=" stroke:none;fill-rule:nonzero;fill:rgb(0%,0%,0%);fill-opacity:1;" d="M 44.773438 399.238281 C 36.644531 389.390625 33.21875 394.964844 17.386719 391.125 C 1.550781 387.28125 6.65625 377.882812 6.65625 377.882812 C 17.359375 373.605469 49.03125 344.132812 49.03125 344.132812 C 49.03125 344.132812 51.597656 332.167969 63.582031 318.527344 C 75.566406 304.882812 67.007812 288.617188 67.007812 288.617188 C 61.746094 267.3125 63.648438 255.652344 67.429688 249.277344 C 69.539062 245.730469 73.226562 243.414062 77.339844 243.046875 C 72.316406 242.515625 67.4375 244.945312 64.84375 249.277344 C 61.066406 255.652344 59.179688 267.304688 64.421875 288.617188 C 64.421875 288.617188 72.972656 304.855469 60.996094 318.527344 C 49.019531 332.195312 46.445312 344.132812 46.445312 344.132812 C 46.445312 344.132812 14.773438 373.613281 4.070312 377.882812 C 4.070312 377.882812 -1.066406 387.277344 14.773438 391.125 C 30.613281 394.972656 34.035156 389.417969 42.164062 399.238281 C 47.789062 406.035156 58.320312 407.519531 68.105469 407.359375 C 59.132812 407.21875 49.90625 405.445312 44.773438 399.238281 Z M 44.773438 399.238281 "/>
</g>
<mask id="mask15">
  <g filter="url(#alpha)">
<rect x="0" y="0" width="148" height="499" style="fill:rgb(0%,0%,0%);fill-opacity:0.101961;stroke:none;"/>
  </g>
</mask>
<clipPath id="clip16">
  <rect x="0" y="0" width="148" height="499"/>
</clipPath>
<g id="surface50" clip-path="url(#clip16)">
<path style=" stroke:none;fill-rule:nonzero;fill:rgb(0%,0%,0%);fill-opacity:1;" d="M 76.941406 239.554688 C 76.402344 238.359375 75.25 237.582031 74.382812 236.589844 C 71.558594 233.394531 72.046875 228.601562 71.882812 224.339844 C 71.714844 220.269531 70.804688 216.265625 69.191406 212.519531 C 70.203125 212.023438 71.121094 211.355469 71.910156 210.550781 C 74.691406 207.589844 75.542969 203.300781 74.097656 199.5 C 72.089844 200.746094 69.777344 201.414062 67.414062 201.433594 C 65.257812 201.433594 63.132812 200.914062 60.976562 200.773438 C 57.332031 200.519531 53.6875 201.328125 50.496094 203.105469 C 50.050781 203.058594 49.601562 203.007812 49.183594 202.933594 C 40.757812 201.660156 34.902344 212.371094 26.46875 216.757812 C 20.550781 219.835938 18.160156 227.019531 17.261719 233.609375 C 16.359375 240.203125 16.222656 247.214844 12.789062 252.921875 C 10.433594 256.820312 5.164062 259.074219 4.175781 263.519531 C 2.25 272.183594 4.386719 270.042969 6.523438 281.582031 C 7.234375 285.394531 8.148438 286.917969 9.050781 290.6875 C 10.023438 294.757812 8.945312 299.007812 8.800781 303.164062 C 8.335938 316.898438 19.550781 330.050781 33.210938 331.777344 C 32.824219 336.78125 30.765625 341.511719 27.363281 345.210938 C 33.019531 347.0625 39.277344 344.921875 44.261719 341.671875 C 52.339844 336.339844 58.234375 328.296875 60.878906 319 C 64.238281 307.089844 61.921875 294.429688 61.390625 282.066406 C 60.859375 269.703125 62.8125 255.953125 72.230469 247.925781 C 74.855469 245.664062 78.355469 242.710938 76.941406 239.554688 Z M 76.941406 239.554688 "/>
</g>
<mask id="mask16">
  <g filter="url(#alpha)">
<rect x="0" y="0" width="148" height="499" style="fill:rgb(0%,0%,0%);fill-opacity:0.0313725;stroke:none;"/>
  </g>
</mask>
<clipPath id="clip17">
  <rect x="0" y="0" width="148" height="499"/>
</clipPath>
<g id="surface53" clip-path="url(#clip17)">
<path style=" stroke:none;fill-rule:nonzero;fill:rgb(0%,0%,0%);fill-opacity:1;" d="M 45.414062 343.949219 C 45.414062 343.949219 55.28125 349.503906 66.382812 349.078125 "/>
</g>
</defs>
<g id="surface1">
<path style="fill:none;stroke-width:2;stroke-linecap:butt;stroke-linejoin:miter;stroke:rgb(32.54902%,32.941176%,38.039216%);stroke-opacity:1;stroke-miterlimit:10;" d="M 131.010478 116.751002 L 131.010478 228.938815 L 182.931271 162.180611 " transform="matrix(0.657778,0,0,0.656579,0,0)"/>
<path style="fill:none;stroke-width:2;stroke-linecap:butt;stroke-linejoin:miter;stroke:rgb(32.54902%,32.941176%,38.039216%);stroke-opacity:1;stroke-miterlimit:10;" d="M 78.157332 151.977392 L 131.010478 228.938815 " transform="matrix(0.657778,0,0,0.656579,0,0)"/>
<use xlink:href="#surface5" mask="url(#mask0)"/>
<path style=" stroke:none;fill-rule:nonzero;fill:rgb(42.352941%,38.823529%,100%);fill-opacity:1;" d="M 54.511719 101.75 L 48.109375 101.75 L 49.226562 97.914062 L 53.070312 97.914062 Z M 54.511719 101.75 "/>
<path style=" stroke:none;fill-rule:nonzero;fill:rgb(82.352941%,19.215686%,21.568627%);fill-opacity:1;" d="M 77.695312 61.316406 C 77.695312 75.972656 65.796875 97.429688 51.117188 97.429688 C 36.433594 97.429688 24.535156 75.960938 24.535156 61.316406 C 24.761719 46.828125 36.59375 35.203125 51.113281 35.203125 C 65.628906 35.203125 77.460938 46.828125 77.691406 61.316406 Z M 77.695312 61.316406 "/>
<path style=" stroke:none;fill-rule:nonzero;fill:rgb(32.54902%,32.941176%,38.039216%);fill-opacity:1;" d="M 53.070312 98.078125 L 49.226562 98.078125 L 46.984375 96.800781 L 55.3125 96.800781 Z M 53.070312 98.078125 "/>
<use xlink:href="#surface8" mask="url(#mask1)"/>
<path style=" stroke:none;fill-rule:nonzero;fill:rgb(42.352941%,38.823529%,100%);fill-opacity:1;" d="M 89.265625 78.429688 L 82.867188 78.429688 L 83.984375 74.59375 L 87.828125 74.59375 Z M 89.265625 78.429688 "/>
<use xlink:href="#surface11" mask="url(#mask2)"/>
<path style=" stroke:none;fill-rule:nonzero;fill:rgb(98.431373%,83.529412%,30.588235%);fill-opacity:1;" d="M 112.488281 37.984375 C 112.488281 52.636719 100.585938 74.09375 85.90625 74.09375 C 71.222656 74.09375 59.324219 52.625 59.324219 37.984375 C 59.554688 23.496094 71.386719 11.867188 85.902344 11.867188 C 100.417969 11.867188 112.25 23.496094 112.480469 37.984375 Z M 112.488281 37.984375 "/>
<path style=" stroke:none;fill-rule:nonzero;fill:rgb(32.54902%,32.941176%,38.039216%);fill-opacity:1;" d="M 87.828125 74.75 L 83.984375 74.75 L 81.742188 73.476562 L 90.070312 73.476562 Z M 87.828125 74.75 "/>
<use xlink:href="#surface14" mask="url(#mask3)"/>
<path style=" stroke:none;fill-rule:nonzero;fill:rgb(42.352941%,38.823529%,100%);fill-opacity:1;" d="M 123.734375 108.164062 L 117.328125 108.164062 L 118.453125 104.332031 L 122.292969 104.332031 Z M 123.734375 108.164062 "/>
<path style=" stroke:none;fill-rule:nonzero;fill:rgb(2.352941%,80%,61.176471%);fill-opacity:1;" d="M 146.949219 67.726562 C 146.949219 82.382812 135.046875 103.839844 120.367188 103.839844 C 105.683594 103.839844 93.785156 82.367188 93.785156 67.726562 C 94.015625 53.238281 105.847656 41.609375 120.363281 41.609375 C 134.878906 41.609375 146.710938 53.238281 146.941406 67.726562 Z M 146.949219 67.726562 "/>
<path style=" stroke:none;fill-rule:nonzero;fill:rgb(32.54902%,32.941176%,38.039216%);fill-opacity:1;" d="M 122.292969 104.496094 L 118.453125 104.496094 L 116.210938 103.214844 L 124.535156 103.214844 Z M 122.292969 104.496094 "/>
<use xlink:href="#surface17" mask="url(#mask4)"/>
<use xlink:href="#surface20" mask="url(#mask5)"/>
<use xlink:href="#surface23" mask="url(#mask6)"/>
<use xlink:href="#surface26" mask="url(#mask7)"/>
<path style=" stroke:none;fill-rule:nonzero;fill:rgb(94.117647%,53.72549%,54.509804%);fill-opacity:1;" d="M 64.882812 254.378906 C 61.109375 260.753906 61.792969 272.40625 67.035156 293.71875 C 67.035156 293.71875 73.027344 309.957031 61.042969 323.628906 C 49.058594 337.296875 46.492188 349.234375 46.492188 349.234375 C 46.492188 349.234375 8.867188 372.503906 4.117188 382.984375 C 11.183594 367.390625 -12.011719 389.710938 14.820312 396.226562 C 30.652344 400.074219 34.078125 394.519531 42.210938 404.339844 C 50.339844 414.164062 68.746094 412.875 80.300781 411.601562 C 91.859375 410.328125 111.546875 396.652344 111.546875 396.652344 C 111.546875 396.652344 89.722656 304.804688 94.445312 295.828125 C 98.898438 287.339844 114.914062 271.207031 83.539062 250.3125 C 77.269531 246.175781 68.703125 247.925781 64.882812 254.378906 Z M 64.882812 254.378906 "/>
<use xlink:href="#surface29" mask="url(#mask8)"/>
<path style=" stroke:none;fill-rule:nonzero;fill:rgb(99.215686%,71.764706%,59.215686%);fill-opacity:1;" d="M 53.359375 400.519531 C 53.359375 400.519531 47.792969 425.300781 40.519531 428.714844 C 33.242188 432.128906 21.257812 450.070312 19.976562 456.480469 L 9.0625 479.761719 L 18.929688 479.761719 L 53.359375 440.683594 C 53.359375 440.683594 66.863281 435.429688 69.625 424.445312 C 70.054688 422.738281 81.609375 392.832031 81.609375 392.832031 Z M 53.359375 400.519531 "/>
<path style=" stroke:none;fill-rule:nonzero;fill:rgb(99.215686%,71.764706%,59.215686%);fill-opacity:1;" d="M 85.433594 392.832031 C 85.433594 392.832031 95.707031 420.171875 93.984375 427.867188 C 92.261719 435.5625 90.128906 445.382812 93.984375 458.199219 L 100.621094 486.609375 L 109.171875 486.183594 L 113.664062 426.585938 C 113.664062 426.585938 118.375 418.050781 113.664062 405.652344 C 108.953125 393.257812 105.535156 377.886719 105.535156 377.886719 Z M 85.433594 392.832031 "/>
<path style=" stroke:none;fill-rule:nonzero;fill:rgb(99.215686%,71.764706%,59.215686%);fill-opacity:1;" d="M 87.5625 253.132812 C 87.5625 253.132812 90.128906 227.070312 96.113281 211.261719 C 96.113281 211.261719 97.824219 203.574219 96.113281 192.035156 L 93.550781 159.570312 C 93.550781 159.570312 93.976562 144.617188 84.5625 144.617188 C 75.152344 144.617188 84.992188 161.28125 84.992188 161.28125 L 84.136719 203.578125 C 84.136719 203.578125 78.570312 246.730469 74.722656 251.429688 Z M 87.5625 253.132812 "/>
<use xlink:href="#surface32" mask="url(#mask9)"/>
<path style=" stroke:none;fill-rule:nonzero;fill:rgb(99.215686%,71.764706%,59.215686%);fill-opacity:1;" d="M 85.433594 222.371094 C 85.433594 222.371094 83.722656 242.875 88.859375 249.710938 C 88.859375 249.710938 76.875 243.300781 66.605469 248.855469 C 66.605469 248.855469 73.027344 231.339844 70.890625 223.652344 Z M 85.433594 222.371094 "/>
<use xlink:href="#surface35" mask="url(#mask10)"/>
<path style=" stroke:none;fill-rule:nonzero;fill:rgb(2.352941%,80%,61.176471%);fill-opacity:1;" d="M 64.882812 249.25 C 61.109375 255.625 59.21875 267.28125 64.460938 288.59375 C 64.460938 288.59375 73.011719 304.828125 61.035156 318.5 C 49.058594 332.167969 46.484375 344.105469 46.484375 344.105469 C 46.484375 344.105469 14.8125 373.585938 4.109375 377.855469 C 4.109375 377.855469 -1.027344 387.25 14.8125 391.097656 C 30.652344 394.945312 34.074219 389.390625 42.203125 399.214844 C 50.332031 409.035156 68.738281 407.75 80.296875 406.476562 C 91.851562 405.199219 111.75 396.863281 111.75 396.863281 C 111.75 396.863281 93.988281 299.6875 98.691406 290.699219 C 103.144531 282.210938 114.882812 266.078125 83.511719 245.1875 C 77.269531 241.050781 68.703125 242.796875 64.882812 249.25 Z M 64.882812 249.25 "/>
<path style=" stroke:none;fill-rule:nonzero;fill:rgb(99.215686%,71.764706%,59.215686%);fill-opacity:1;" d="M 92.28125 259.546875 C 92.28125 267.566406 85.765625 274.070312 77.730469 274.070312 C 69.695312 274.070312 63.179688 267.566406 63.179688 259.546875 C 63.179688 251.523438 69.695312 245.023438 77.730469 245.023438 C 85.765625 245.023438 92.28125 251.523438 92.28125 259.546875 Z M 92.28125 259.546875 "/>
<use xlink:href="#surface38" mask="url(#mask11)"/>
<path style=" stroke:none;fill-rule:nonzero;fill:rgb(99.215686%,71.764706%,59.215686%);fill-opacity:1;" d="M 72.59375 264.667969 L 69.597656 309.523438 L 79.464844 357.375 C 79.464844 357.375 70.460938 388.988281 79.441406 385.96875 C 88.417969 382.949219 88.878906 356.949219 88.878906 356.949219 L 82.886719 306.964844 C 82.886719 306.964844 90.160156 269.367188 88.878906 261.660156 C 87.597656 253.953125 72.59375 264.667969 72.59375 264.667969 Z M 72.59375 264.667969 "/>
<use xlink:href="#surface41" mask="url(#mask12)"/>
<path style=" stroke:none;fill-rule:nonzero;fill:rgb(99.215686%,71.764706%,59.215686%);fill-opacity:1;" d="M 87.578125 220.242188 C 87.578125 229.445312 80.101562 236.90625 70.882812 236.90625 C 61.660156 236.90625 54.1875 229.445312 54.1875 220.242188 C 54.1875 211.039062 61.660156 203.578125 70.882812 203.578125 C 80.101562 203.578125 87.578125 211.039062 87.578125 220.242188 Z M 87.578125 220.242188 "/>
<use xlink:href="#surface44" mask="url(#mask13)"/>
<use xlink:href="#surface47" mask="url(#mask14)"/>
<use xlink:href="#surface50" mask="url(#mask15)"/>
<path style=" stroke:none;fill-rule:nonzero;fill:rgb(14.509804%,13.333333%,13.72549%);fill-opacity:1;" d="M 76.085938 239.140625 C 75.546875 237.945312 74.394531 237.167969 73.527344 236.179688 C 70.703125 232.980469 71.191406 228.1875 71.027344 223.925781 C 70.859375 219.855469 69.949219 215.851562 68.335938 212.109375 C 69.347656 211.609375 70.265625 210.941406 71.054688 210.136719 C 73.84375 207.171875 74.691406 202.878906 73.242188 199.074219 C 71.234375 200.320312 68.921875 200.988281 66.558594 201.003906 C 64.402344 201.003906 62.277344 200.488281 60.121094 200.347656 C 56.476562 200.09375 52.835938 200.902344 49.640625 202.679688 C 49.195312 202.632812 48.746094 202.582031 48.328125 202.507812 C 39.902344 201.234375 34.046875 211.945312 25.613281 216.328125 C 19.695312 219.410156 17.304688 226.59375 16.40625 233.183594 C 15.503906 239.777344 15.367188 246.789062 11.933594 252.492188 C 9.578125 256.394531 4.308594 258.644531 3.320312 263.089844 C 1.394531 271.757812 3.53125 269.617188 5.671875 281.152344 C 6.378906 284.96875 7.292969 286.492188 8.195312 290.261719 C 9.167969 294.332031 8.089844 298.578125 7.945312 302.734375 C 7.480469 316.472656 18.695312 329.621094 32.355469 331.347656 C 31.96875 336.355469 29.910156 341.085938 26.507812 344.78125 C 32.164062 346.632812 38.421875 344.492188 43.40625 341.242188 C 51.503906 335.925781 57.417969 327.886719 60.082031 318.585938 C 63.441406 306.675781 61.128906 294.015625 60.59375 281.652344 C 60.0625 269.289062 62.015625 255.539062 71.433594 247.511719 C 74 245.238281 77.5 242.285156 76.085938 239.140625 Z M 76.085938 239.140625 "/>
<path style=" stroke:none;fill-rule:nonzero;fill:rgb(20%,20%,20%);fill-opacity:1;" d="M 18.878906 479.769531 C 18.878906 479.769531 21.015625 485.324219 25.296875 487.03125 C 25.296875 487.03125 36 489.589844 29.152344 492.160156 C 24.546875 493.871094 14.476562 490.4375 8.261719 487.96875 C 7.074219 487.480469 6.199219 486.441406 5.917969 485.1875 C 5.636719 483.933594 5.988281 482.621094 6.855469 481.671875 L 9.03125 479.34375 Z M 18.878906 479.769531 "/>
<path style=" stroke:none;fill-rule:nonzero;fill:rgb(20%,20%,20%);fill-opacity:1;" d="M 109.613281 485.324219 C 109.613281 485.324219 113.316406 490.726562 117.808594 491.75 C 117.808594 491.75 128.78125 492.625 122.414062 496.214844 C 118.175781 498.605469 107.703125 496.808594 101.179688 495.328125 C 99.90625 495.042969 98.859375 494.148438 98.378906 492.9375 C 97.898438 491.730469 98.050781 490.359375 98.777344 489.28125 L 100.546875 486.65625 Z M 109.613281 485.324219 "/>
<use xlink:href="#surface53" mask="url(#mask16)"/>
</g>
</svg>
