<?xml version="1.0" encoding="UTF-8"?>
<svg xmlns="http://www.w3.org/2000/svg" xmlns:xlink="http://www.w3.org/1999/xlink" width="100pt" height="444pt" viewBox="0 0 100 444" version="1.1">
<defs>
<filter id="alpha" filterUnits="objectBoundingBox" x="0%" y="0%" width="100%" height="100%">
  <feColorMatrix type="matrix" in="SourceGraphic" values="0 0 0 0 1 0 0 0 0 1 0 0 0 0 1 0 0 0 1 0"/>
</filter>
<mask id="mask0">
  <g filter="url(#alpha)">
<rect x="0" y="0" width="100" height="444" style="fill:rgb(0%,0%,0%);fill-opacity:0.701961;stroke:none;"/>
  </g>
</mask>
<linearGradient id="linear0" gradientUnits="userSpaceOnUse" x1="0.500026" y1="1.000066" x2="0.500026" y2="-0.00019" gradientTransform="matrix(85.453125,0,0,67.546875,15.21875,113.246094)">
<stop offset="0" style="stop-color:rgb(50.196078%,50.196078%,50.196078%);stop-opacity:0.25098;"/>
<stop offset="0.54" style="stop-color:rgb(50.196078%,50.196078%,50.196078%);stop-opacity:0.121569;"/>
<stop offset="1" style="stop-color:rgb(50.196078%,50.196078%,50.196078%);stop-opacity:0.101961;"/>
</linearGradient>
<clipPath id="clip1">
  <rect width="100" height="444"/>
</clipPath>
<g id="surface6" clip-path="url(#clip1)">
<path style=" stroke:none;fill-rule:nonzero;fill:url(#linear0);" d="M 100.671875 152.539062 C 100.667969 146.605469 97.820312 141.03125 93.011719 137.542969 C 88.207031 134.054688 82.019531 133.078125 76.367188 134.910156 C 76.523438 133.867188 76.601562 132.816406 76.605469 131.761719 C 76.597656 121.785156 68.691406 113.601562 58.710938 113.246094 C 48.730469 112.886719 40.257812 120.480469 39.535156 130.429688 C 33.882812 128.589844 27.691406 129.566406 22.878906 133.054688 C 18.070312 136.542969 15.21875 142.121094 15.21875 148.058594 C 15.21875 157.382812 22.074219 170.59375 31.019531 172.925781 L 32.410156 173.71875 L 31.652344 176.304688 L 36.125 176.304688 L 35.164062 173.722656 L 36.546875 172.933594 C 43.453125 171.121094 49.121094 162.808594 51.335938 154.835938 C 52.550781 155.644531 53.890625 156.25 55.296875 156.632812 L 56.6875 157.429688 L 55.933594 160.011719 L 60.40625 160.011719 L 59.429688 157.425781 L 60.8125 156.632812 C 61.84375 156.359375 62.832031 155.957031 63.765625 155.441406 C 64.960938 164.386719 71.320312 175.304688 79.359375 177.414062 L 80.75 178.207031 L 79.996094 180.792969 L 84.464844 180.792969 L 83.492188 178.203125 L 84.875 177.414062 C 93.832031 175.074219 100.671875 161.84375 100.671875 152.539062 Z M 100.671875 152.539062 "/>
</g>
<mask id="mask1">
  <g filter="url(#alpha)">
<rect x="0" y="0" width="100" height="444" style="fill:rgb(0%,0%,0%);fill-opacity:0.101961;stroke:none;"/>
  </g>
</mask>
<clipPath id="clip2">
  <rect width="100" height="444"/>
</clipPath>
<g id="surface9" clip-path="url(#clip2)">
<path style=" stroke:none;fill-rule:nonzero;fill:rgb(100%,100%,100%);fill-opacity:1;" d="M 28.054688 134.078125 C 28.054688 134.078125 20.496094 138.1875 19.398438 146.398438 "/>
</g>
<mask id="mask2">
  <g filter="url(#alpha)">
<rect x="0" y="0" width="100" height="444" style="fill:rgb(0%,0%,0%);fill-opacity:0.101961;stroke:none;"/>
  </g>
</mask>
<clipPath id="clip3">
  <rect width="100" height="444"/>
</clipPath>
<g id="surface13" clip-path="url(#clip3)">
<path style=" stroke:none;fill-rule:nonzero;fill:rgb(100%,100%,100%);fill-opacity:1;" d="M 51.550781 118.308594 C 51.550781 118.308594 43.996094 122.414062 42.898438 130.628906 "/>
</g>
<mask id="mask3">
  <g filter="url(#alpha)">
<rect x="0" y="0" width="100" height="444" style="fill:rgb(0%,0%,0%);fill-opacity:0.101961;stroke:none;"/>
  </g>
</mask>
<clipPath id="clip4">
  <rect width="100" height="444"/>
</clipPath>
<g id="surface16" clip-path="url(#clip4)">
<path style=" stroke:none;fill-rule:nonzero;fill:rgb(100%,100%,100%);fill-opacity:1;" d="M 74.839844 138.417969 C 74.839844 138.417969 67.285156 142.523438 66.1875 150.738281 "/>
</g>
<mask id="mask4">
  <g filter="url(#alpha)">
<rect x="0" y="0" width="100" height="444" style="fill:rgb(0%,0%,0%);fill-opacity:0.2;stroke:none;"/>
  </g>
</mask>
<clipPath id="clip5">
  <rect width="100" height="444"/>
</clipPath>
<g id="surface19" clip-path="url(#clip5)">
<path style=" stroke:none;fill-rule:nonzero;fill:rgb(0%,0%,0%);fill-opacity:1;" d="M 87.894531 155.707031 L 81.714844 159.476562 L 75.535156 155.707031 L 81.714844 145.121094 Z M 75.539062 150.101562 L 69.355469 146.332031 L 75.539062 155.328125 L 81.71875 146.332031 Z M 75.539062 150.101562 "/>
</g>
<mask id="mask5">
  <g filter="url(#alpha)">
<rect x="0" y="0" width="100" height="444" style="fill:rgb(0%,0%,0%);fill-opacity:0.2;stroke:none;"/>
  </g>
</mask>
<clipPath id="clip6">
  <rect width="100" height="444"/>
</clipPath>
<g id="surface22" clip-path="url(#clip6)">
<path style=" stroke:none;fill-rule:nonzero;fill:rgb(0%,0%,0%);fill-opacity:1;" d="M 64.398438 134.300781 L 58.222656 138.070312 L 52.054688 134.300781 L 58.234375 123.707031 Z M 52.058594 128.6875 L 52.054688 135.507812 L 58.234375 144.503906 L 64.417969 135.507812 L 58.234375 139.277344 Z M 52.058594 128.6875 "/>
</g>
<mask id="mask6">
  <g filter="url(#alpha)">
<rect x="0" y="0" width="100" height="444" style="fill:rgb(0%,0%,0%);fill-opacity:0.2;stroke:none;"/>
  </g>
</mask>
<clipPath id="clip7">
  <rect width="100" height="444"/>
</clipPath>
<g id="surface25" clip-path="url(#clip7)">
<path style=" stroke:none;fill-rule:nonzero;fill:rgb(0%,0%,0%);fill-opacity:1;" d="M 40.089844 151.589844 L 33.910156 155.359375 L 27.730469 151.589844 L 33.910156 140.996094 Z M 27.734375 145.976562 L 21.550781 142.207031 L 27.734375 151.203125 L 33.914062 142.207031 Z M 27.734375 145.976562 "/>
</g>
<mask id="mask7">
  <g filter="url(#alpha)">
<rect x="0" y="0" width="100" height="444" style="fill:rgb(0%,0%,0%);fill-opacity:0.101961;stroke:none;"/>
  </g>
</mask>
<clipPath id="clip8">
  <rect width="100" height="444"/>
</clipPath>
<g id="surface28" clip-path="url(#clip8)">
<path style=" stroke:none;fill-rule:nonzero;fill:rgb(0%,0%,0%);fill-opacity:1;" d="M 43.839844 278.578125 C 41.289062 282.890625 41.75 290.769531 45.292969 305.183594 C 45.292969 305.183594 49.34375 316.164062 41.246094 325.40625 C 33.148438 334.652344 31.414062 342.722656 31.414062 342.722656 C 31.414062 342.722656 5.828125 358.386719 2.78125 365.546875 C 7.265625 355 -8.117188 370.097656 10.011719 374.5 C 20.710938 377.101562 23.027344 373.347656 28.519531 379.988281 C 34.011719 386.628906 46.449219 385.761719 54.257812 384.898438 C 62.066406 384.039062 75.367188 374.789062 75.367188 374.789062 C 75.367188 374.789062 60.621094 312.679688 63.8125 306.609375 C 66.820312 300.867188 77.644531 289.957031 56.445312 275.832031 C 52.207031 273.03125 46.421875 274.214844 43.839844 278.578125 Z M 43.839844 278.578125 "/>
</g>
<mask id="mask8">
  <g filter="url(#alpha)">
<rect x="0" y="0" width="100" height="444" style="fill:rgb(0%,0%,0%);fill-opacity:0.0509804;stroke:none;"/>
  </g>
</mask>
<clipPath id="clip9">
  <rect width="100" height="444"/>
</clipPath>
<g id="surface31" clip-path="url(#clip9)">
<path style=" stroke:none;fill-rule:nonzero;fill:rgb(0%,0%,0%);fill-opacity:1;" d="M 59.164062 277.734375 C 59.164062 277.734375 60.898438 260.113281 64.941406 249.421875 C 64.941406 249.421875 66.097656 244.222656 64.941406 236.421875 L 63.207031 214.464844 C 63.207031 214.464844 63.496094 204.355469 57.136719 204.355469 C 50.777344 204.355469 57.425781 215.625 57.425781 215.625 L 56.847656 244.226562 C 56.847656 244.226562 53.089844 273.40625 50.488281 276.585938 Z M 59.164062 277.734375 "/>
</g>
<mask id="mask9">
  <g filter="url(#alpha)">
<rect x="0" y="0" width="100" height="444" style="fill:rgb(0%,0%,0%);fill-opacity:0.101961;stroke:none;"/>
  </g>
</mask>
<clipPath id="clip10">
  <rect width="100" height="444"/>
</clipPath>
<g id="surface34" clip-path="url(#clip10)">
<path style=" stroke:none;fill-rule:nonzero;fill:rgb(0%,0%,0%);fill-opacity:1;" d="M 43.839844 275.6875 C 41.289062 280 40.011719 287.878906 43.554688 302.292969 C 43.554688 302.292969 49.332031 313.273438 41.238281 322.515625 C 33.148438 331.761719 31.410156 339.832031 31.410156 339.832031 C 31.410156 339.832031 10.007812 359.769531 2.777344 362.65625 C 2.777344 362.65625 -0.691406 369.007812 10.007812 371.609375 C 20.710938 374.210938 23.023438 370.457031 28.515625 377.097656 C 34.007812 383.738281 46.445312 382.871094 54.253906 382.007812 C 62.0625 381.148438 75.507812 375.507812 75.507812 375.507812 C 75.507812 375.507812 63.507812 309.796875 66.683594 303.71875 C 69.691406 297.976562 77.621094 287.066406 56.425781 272.941406 C 52.207031 270.144531 46.421875 271.328125 43.839844 275.6875 Z M 43.839844 275.6875 "/>
</g>
<mask id="mask10">
  <g filter="url(#alpha)">
<rect x="0" y="0" width="100" height="444" style="fill:rgb(0%,0%,0%);fill-opacity:0.101961;stroke:none;"/>
  </g>
</mask>
<clipPath id="clip11">
  <rect width="100" height="444"/>
</clipPath>
<g id="surface37" clip-path="url(#clip11)">
<path style=" stroke:none;fill-rule:nonzero;fill:rgb(0%,0%,0%);fill-opacity:1;" d="M 49.050781 286.113281 L 47.027344 316.449219 L 53.691406 348.804688 C 53.691406 348.804688 47.621094 370.183594 53.691406 368.160156 C 59.765625 366.136719 60.054688 348.515625 60.054688 348.515625 L 55.992188 314.730469 C 55.992188 314.730469 60.90625 289.304688 60.039062 284.09375 C 59.171875 278.878906 49.050781 286.113281 49.050781 286.113281 Z M 49.050781 286.113281 "/>
</g>
<mask id="mask11">
  <g filter="url(#alpha)">
<rect x="0" y="0" width="100" height="444" style="fill:rgb(0%,0%,0%);fill-opacity:0.0313725;stroke:none;"/>
  </g>
</mask>
<clipPath id="clip12">
  <rect width="100" height="444"/>
</clipPath>
<g id="surface40" clip-path="url(#clip12)">
<path style=" stroke:none;fill-rule:nonzero;fill:rgb(0%,0%,0%);fill-opacity:1;" d="M 47.746094 266.332031 C 51.839844 266.332031 55.5625 265.164062 57.523438 261.894531 C 57.550781 259.339844 57.707031 257.507812 57.707031 257.507812 L 47.875 258.394531 C 48.496094 260.613281 48.15625 262.53125 47.429688 265.761719 C 47.640625 265.757812 47.5625 266.332031 47.746094 266.332031 Z M 47.746094 266.332031 "/>
</g>
<mask id="mask12">
  <g filter="url(#alpha)">
<rect x="0" y="0" width="100" height="444" style="fill:rgb(0%,0%,0%);fill-opacity:0.0313725;stroke:none;"/>
  </g>
</mask>
<clipPath id="clip13">
  <rect width="100" height="444"/>
</clipPath>
<g id="surface43" clip-path="url(#clip13)">
<path style=" stroke:none;fill-rule:nonzero;fill:rgb(0%,0%,0%);fill-opacity:1;" d="M 60.183594 298.972656 C 60.183594 298.972656 61.070312 303.304688 66.6875 303.738281 "/>
</g>
<mask id="mask13">
  <g filter="url(#alpha)">
<rect x="0" y="0" width="100" height="444" style="fill:rgb(0%,0%,0%);fill-opacity:0.0313725;stroke:none;"/>
  </g>
</mask>
<clipPath id="clip14">
  <rect width="100" height="444"/>
</clipPath>
<g id="surface46" clip-path="url(#clip14)">
<path style=" stroke:none;fill-rule:nonzero;fill:rgb(0%,0%,0%);fill-opacity:1;" d="M 30.253906 376.539062 C 24.761719 369.878906 22.445312 373.648438 11.746094 371.050781 C 1.050781 368.453125 4.496094 362.09375 4.496094 362.09375 C 11.730469 359.203125 33.128906 339.273438 33.128906 339.273438 C 33.128906 339.273438 34.863281 331.183594 42.960938 321.957031 C 51.058594 312.730469 45.277344 301.734375 45.277344 301.734375 C 41.71875 287.324219 43.003906 279.441406 45.558594 275.128906 C 46.984375 272.730469 49.476562 271.164062 52.257812 270.914062 C 48.863281 270.554688 45.566406 272.199219 43.8125 275.128906 C 41.261719 279.441406 39.988281 287.320312 43.527344 301.734375 C 43.527344 301.734375 49.308594 312.714844 41.214844 321.957031 C 33.121094 331.203125 31.382812 339.273438 31.382812 339.273438 C 31.382812 339.273438 9.980469 359.210938 2.75 362.09375 C 2.75 362.09375 -0.71875 368.449219 9.980469 371.050781 C 20.683594 373.652344 22.996094 369.894531 28.488281 376.539062 C 32.289062 381.132812 39.40625 382.136719 46.019531 382.03125 C 39.957031 381.933594 33.71875 380.734375 30.253906 376.539062 Z M 30.253906 376.539062 "/>
</g>
<mask id="mask14">
  <g filter="url(#alpha)">
<rect x="0" y="0" width="100" height="444" style="fill:rgb(0%,0%,0%);fill-opacity:0.101961;stroke:none;"/>
  </g>
</mask>
<clipPath id="clip15">
  <rect width="100" height="444"/>
</clipPath>
<g id="surface49" clip-path="url(#clip15)">
<path style=" stroke:none;fill-rule:nonzero;fill:rgb(0%,0%,0%);fill-opacity:1;" d="M 51.988281 268.554688 C 51.621094 267.746094 50.84375 267.222656 50.257812 266.550781 C 48.351562 264.386719 48.679688 261.148438 48.570312 258.265625 C 48.457031 255.511719 47.839844 252.804688 46.75 250.273438 C 47.433594 249.9375 48.054688 249.484375 48.585938 248.941406 C 50.46875 246.9375 51.042969 244.039062 50.066406 241.46875 C 48.710938 242.308594 47.148438 242.761719 45.550781 242.773438 C 44.09375 242.773438 42.65625 242.421875 41.199219 242.332031 C 38.738281 242.15625 36.277344 242.707031 34.121094 243.90625 C 33.816406 243.875 33.515625 243.839844 33.230469 243.792969 C 27.539062 242.929688 23.582031 250.171875 17.882812 253.136719 C 13.882812 255.21875 12.269531 260.078125 11.664062 264.535156 C 11.054688 268.992188 10.960938 273.734375 8.640625 277.59375 C 7.050781 280.230469 3.488281 281.753906 2.820312 284.757812 C 1.519531 290.621094 2.964844 289.171875 4.410156 296.972656 C 4.890625 299.554688 5.507812 300.582031 6.117188 303.132812 C 6.773438 305.882812 6.042969 308.757812 5.945312 311.566406 C 5.632812 320.855469 13.207031 329.75 22.441406 330.917969 C 22.179688 334.300781 20.789062 337.5 18.488281 340 C 22.3125 341.253906 26.539062 339.804688 29.90625 337.609375 C 35.363281 334.003906 39.347656 328.5625 41.132812 322.277344 C 43.40625 314.222656 41.839844 305.664062 41.480469 297.300781 C 41.121094 288.941406 42.441406 279.644531 48.804688 274.214844 C 50.578125 272.6875 52.941406 270.6875 51.988281 268.554688 Z M 51.988281 268.554688 "/>
</g>
<mask id="mask15">
  <g filter="url(#alpha)">
<rect x="0" y="0" width="100" height="444" style="fill:rgb(0%,0%,0%);fill-opacity:0.0313725;stroke:none;"/>
  </g>
</mask>
<clipPath id="clip16">
  <rect width="100" height="444"/>
</clipPath>
<g id="surface52" clip-path="url(#clip16)">
<path style=" stroke:none;fill-rule:nonzero;fill:rgb(0%,0%,0%);fill-opacity:1;" d="M 30.683594 339.148438 C 30.683594 339.148438 37.351562 342.90625 44.851562 342.617188 "/>
</g>
</defs>
<g id="surface1">
<path style="fill:none;stroke-width:2;stroke-linecap:butt;stroke-linejoin:miter;stroke:rgb(32.54902%,32.941176%,38.039216%);stroke-opacity:1;stroke-miterlimit:10;" d="M 131.009766 356.753238 L 131.009766 468.943553 L 182.926758 402.176591 " transform="matrix(0.444444,0,0,0.444,0,0)"/>
<path style="fill:none;stroke-width:2;stroke-linecap:butt;stroke-linejoin:miter;stroke:rgb(32.54902%,32.941176%,38.039216%);stroke-opacity:1;stroke-miterlimit:10;" d="M 78.161133 391.97987 L 131.009766 468.943553 " transform="matrix(0.444444,0,0,0.444,0,0)"/>
<use xlink:href="#surface6" mask="url(#mask0)"/>
<path style=" stroke:none;fill-rule:nonzero;fill:rgb(20%,20%,20%);fill-opacity:1;" d="M 36.832031 175.367188 L 32.507812 175.367188 L 33.261719 172.773438 L 35.859375 172.773438 Z M 36.832031 175.367188 "/>
<path style=" stroke:none;fill-rule:nonzero;fill:rgb(82.352941%,19.215686%,21.568627%);fill-opacity:1;" d="M 52.496094 148.023438 C 52.496094 157.933594 44.457031 172.445312 34.539062 172.445312 C 24.617188 172.445312 16.578125 157.925781 16.578125 148.023438 C 16.730469 138.226562 24.726562 130.363281 34.535156 130.363281 C 44.34375 130.363281 52.339844 138.226562 52.492188 148.023438 Z M 52.496094 148.023438 "/>
<path style=" stroke:none;fill-rule:nonzero;fill:rgb(32.54902%,32.941176%,38.039216%);fill-opacity:1;" d="M 35.859375 172.882812 L 33.261719 172.882812 L 31.746094 172.019531 L 37.375 172.019531 Z M 35.859375 172.882812 "/>
<use xlink:href="#surface9" mask="url(#mask1)"/>
<path style=" stroke:none;fill-rule:nonzero;fill:rgb(42.352941%,38.823529%,100%);fill-opacity:1;" d="M 60.316406 159.59375 L 55.992188 159.59375 L 56.746094 157.003906 L 59.34375 157.003906 Z M 60.316406 159.59375 "/>
<path style=" stroke:none;fill-rule:nonzero;fill:rgb(32.54902%,32.941176%,38.039216%);fill-opacity:1;" d="M 59.34375 157.109375 L 56.746094 157.109375 L 55.230469 156.246094 L 60.859375 156.246094 Z M 59.34375 157.109375 "/>
<use xlink:href="#surface13" mask="url(#mask2)"/>
<path style=" stroke:none;fill-rule:nonzero;fill:rgb(20%,20%,20%);fill-opacity:1;" d="M 83.605469 179.703125 L 79.277344 179.703125 L 80.035156 177.109375 L 82.632812 177.109375 Z M 83.605469 179.703125 "/>
<path style=" stroke:none;fill-rule:nonzero;fill:rgb(2.352941%,80%,61.176471%);fill-opacity:1;" d="M 99.289062 152.359375 C 99.289062 162.269531 91.25 176.777344 81.328125 176.777344 C 71.410156 176.777344 63.367188 162.257812 63.367188 152.359375 C 63.523438 142.558594 71.519531 134.699219 81.328125 134.699219 C 91.136719 134.699219 99.128906 142.558594 99.285156 152.359375 Z M 99.289062 152.359375 "/>
<path style=" stroke:none;fill-rule:nonzero;fill:rgb(32.54902%,32.941176%,38.039216%);fill-opacity:1;" d="M 82.632812 177.222656 L 80.035156 177.222656 L 78.519531 176.355469 L 84.148438 176.355469 Z M 82.632812 177.222656 "/>
<use xlink:href="#surface16" mask="url(#mask3)"/>
<path style=" stroke:none;fill-rule:nonzero;fill:rgb(98.431373%,83.529412%,30.588235%);fill-opacity:1;" d="M 76.003906 132.246094 C 76.003906 142.15625 67.964844 156.664062 58.042969 156.664062 C 48.125 156.664062 40.085938 142.144531 40.085938 132.246094 C 40.238281 122.449219 48.234375 114.585938 58.042969 114.585938 C 67.851562 114.585938 75.84375 122.449219 76 132.246094 Z M 76.003906 132.246094 "/>
<use xlink:href="#surface19" mask="url(#mask4)"/>
<use xlink:href="#surface22" mask="url(#mask5)"/>
<use xlink:href="#surface25" mask="url(#mask6)"/>
<path style=" stroke:none;fill-rule:nonzero;fill:rgb(94.117647%,53.72549%,54.509804%);fill-opacity:1;" d="M 43.839844 278.578125 C 41.289062 282.890625 41.75 290.769531 45.292969 305.183594 C 45.292969 305.183594 49.34375 316.164062 41.246094 325.40625 C 33.148438 334.652344 31.414062 342.722656 31.414062 342.722656 C 31.414062 342.722656 5.992188 358.457031 2.78125 365.546875 C 7.554688 355 -8.117188 370.097656 10.011719 374.5 C 20.710938 377.101562 23.027344 373.347656 28.519531 379.988281 C 34.011719 386.628906 46.449219 385.761719 54.257812 384.898438 C 62.066406 384.039062 75.367188 374.789062 75.367188 374.789062 C 75.367188 374.789062 60.621094 312.679688 63.8125 306.609375 C 66.820312 300.867188 77.644531 289.957031 56.445312 275.832031 C 52.207031 273.03125 46.421875 274.214844 43.839844 278.578125 Z M 43.839844 278.578125 "/>
<use xlink:href="#surface28" mask="url(#mask7)"/>
<path style=" stroke:none;fill-rule:nonzero;fill:rgb(99.215686%,71.764706%,59.215686%);fill-opacity:1;" d="M 36.054688 377.402344 C 36.054688 377.402344 32.292969 394.160156 27.378906 396.46875 C 22.460938 398.777344 14.363281 410.914062 13.496094 415.246094 L 6.125 430.992188 L 12.792969 430.992188 L 36.054688 404.5625 C 36.054688 404.5625 45.179688 401.011719 47.042969 393.582031 C 47.332031 392.429688 55.140625 372.203125 55.140625 372.203125 Z M 36.054688 377.402344 "/>
<path style=" stroke:none;fill-rule:nonzero;fill:rgb(99.215686%,71.764706%,59.215686%);fill-opacity:1;" d="M 57.722656 372.203125 C 57.722656 372.203125 64.667969 390.691406 63.503906 395.898438 C 62.335938 401.101562 60.898438 407.742188 63.503906 416.410156 L 67.988281 435.621094 L 73.765625 435.332031 L 76.800781 395.03125 C 76.800781 395.03125 79.980469 389.257812 76.800781 380.875 C 73.617188 372.492188 71.308594 362.097656 71.308594 362.097656 Z M 57.722656 372.203125 "/>
<path style=" stroke:none;fill-rule:nonzero;fill:rgb(99.215686%,71.764706%,59.215686%);fill-opacity:1;" d="M 59.164062 277.734375 C 59.164062 277.734375 60.898438 260.113281 64.941406 249.421875 C 64.941406 249.421875 66.097656 244.222656 64.941406 236.421875 L 63.207031 214.464844 C 63.207031 214.464844 63.496094 204.355469 57.136719 204.355469 C 50.777344 204.355469 57.425781 215.625 57.425781 215.625 L 56.847656 244.226562 C 56.847656 244.226562 53.089844 273.40625 50.488281 276.585938 Z M 59.164062 277.734375 "/>
<use xlink:href="#surface31" mask="url(#mask8)"/>
<path style=" stroke:none;fill-rule:nonzero;fill:rgb(99.215686%,71.764706%,59.215686%);fill-opacity:1;" d="M 57.722656 256.933594 C 57.722656 256.933594 56.570312 270.800781 60.039062 275.421875 C 60.039062 275.421875 51.941406 271.089844 45.003906 274.84375 C 45.003906 274.84375 49.34375 263 47.898438 257.800781 Z M 57.722656 256.933594 "/>
<use xlink:href="#surface34" mask="url(#mask9)"/>
<path style=" stroke:none;fill-rule:nonzero;fill:rgb(2.352941%,80%,61.176471%);fill-opacity:1;" d="M 43.839844 275.109375 C 41.289062 279.421875 40.011719 287.304688 43.554688 301.714844 C 43.554688 301.714844 49.332031 312.695312 41.238281 321.941406 C 33.148438 331.183594 31.410156 339.253906 31.410156 339.253906 C 31.410156 339.253906 10.007812 359.191406 2.777344 362.078125 C 2.777344 362.078125 -0.691406 368.429688 10.007812 371.03125 C 20.710938 373.632812 23.023438 369.878906 28.515625 376.519531 C 34.007812 383.164062 46.445312 382.292969 54.253906 381.429688 C 62.0625 380.570312 75.507812 374.929688 75.507812 374.929688 C 75.507812 374.929688 63.507812 309.21875 66.683594 303.140625 C 69.691406 297.398438 77.621094 286.492188 56.425781 272.363281 C 52.207031 269.566406 46.421875 270.746094 43.839844 275.109375 Z M 43.839844 275.109375 "/>
<path style=" stroke:none;fill-rule:nonzero;fill:rgb(99.215686%,71.764706%,59.215686%);fill-opacity:1;" d="M 62.351562 282.074219 C 62.351562 287.496094 57.949219 291.894531 52.519531 291.894531 C 47.089844 291.894531 42.6875 287.496094 42.6875 282.074219 C 42.6875 276.648438 47.089844 272.25 52.519531 272.25 C 57.949219 272.25 62.351562 276.648438 62.351562 282.074219 Z M 62.351562 282.074219 "/>
<use xlink:href="#surface37" mask="url(#mask10)"/>
<path style=" stroke:none;fill-rule:nonzero;fill:rgb(99.215686%,71.764706%,59.215686%);fill-opacity:1;" d="M 49.050781 285.535156 L 47.027344 315.871094 L 53.691406 348.230469 C 53.691406 348.230469 47.609375 369.609375 53.675781 367.566406 C 59.742188 365.523438 60.054688 347.941406 60.054688 347.941406 L 56.003906 314.136719 C 56.003906 314.136719 60.921875 288.714844 60.054688 283.503906 C 59.1875 278.289062 49.050781 285.535156 49.050781 285.535156 Z M 49.050781 285.535156 "/>
<use xlink:href="#surface40" mask="url(#mask11)"/>
<path style=" stroke:none;fill-rule:nonzero;fill:rgb(99.215686%,71.764706%,59.215686%);fill-opacity:1;" d="M 59.171875 255.496094 C 59.171875 261.71875 54.125 266.765625 47.894531 266.765625 C 41.664062 266.765625 36.613281 261.71875 36.613281 255.496094 C 36.613281 249.273438 41.664062 244.226562 47.894531 244.226562 C 54.125 244.226562 59.171875 249.273438 59.171875 255.496094 Z M 59.171875 255.496094 "/>
<use xlink:href="#surface43" mask="url(#mask12)"/>
<use xlink:href="#surface46" mask="url(#mask13)"/>
<use xlink:href="#surface49" mask="url(#mask14)"/>
<path style=" stroke:none;fill-rule:nonzero;fill:rgb(14.509804%,13.333333%,13.72549%);fill-opacity:1;" d="M 51.410156 268.273438 C 51.042969 267.464844 50.265625 266.941406 49.679688 266.269531 C 47.773438 264.109375 48.101562 260.867188 47.992188 257.984375 C 47.878906 255.234375 47.261719 252.523438 46.171875 249.992188 C 46.855469 249.65625 47.476562 249.207031 48.007812 248.660156 C 49.894531 246.65625 50.46875 243.75 49.488281 241.179688 C 48.132812 242.023438 46.570312 242.472656 44.972656 242.484375 C 43.515625 242.484375 42.078125 242.136719 40.621094 242.042969 C 38.160156 241.867188 35.699219 242.417969 33.542969 243.617188 C 33.238281 243.585938 32.9375 243.550781 32.652344 243.503906 C 26.960938 242.640625 23.003906 249.882812 17.308594 252.847656 C 13.308594 254.929688 11.691406 259.789062 11.085938 264.246094 C 10.476562 268.703125 10.382812 273.445312 8.0625 277.304688 C 6.472656 279.941406 2.910156 281.464844 2.246094 284.46875 C 0.941406 290.332031 2.386719 288.882812 3.832031 296.683594 C 4.3125 299.265625 4.929688 300.292969 5.539062 302.84375 C 6.195312 305.597656 5.464844 308.46875 5.367188 311.277344 C 5.054688 320.566406 12.632812 329.460938 21.863281 330.628906 C 21.601562 334.011719 20.210938 337.214844 17.910156 339.714844 C 21.734375 340.964844 25.960938 339.519531 29.328125 337.320312 C 34.800781 333.722656 38.796875 328.289062 40.59375 321.996094 C 42.867188 313.941406 41.300781 305.382812 40.941406 297.023438 C 40.582031 288.660156 41.902344 279.363281 48.265625 273.933594 C 50 272.398438 52.363281 270.398438 51.410156 268.273438 Z M 51.410156 268.273438 "/>
<path style=" stroke:none;fill-rule:nonzero;fill:rgb(20%,20%,20%);fill-opacity:1;" d="M 12.753906 430.996094 C 12.753906 430.996094 14.199219 434.75 17.09375 435.90625 C 17.09375 435.90625 24.324219 437.636719 19.699219 439.375 C 16.585938 440.53125 9.78125 438.210938 5.582031 436.539062 C 4.777344 436.207031 4.1875 435.507812 4 434.660156 C 3.808594 433.8125 4.046875 432.925781 4.632812 432.28125 L 6.101562 430.707031 Z M 12.753906 430.996094 "/>
<path style=" stroke:none;fill-rule:nonzero;fill:rgb(20%,20%,20%);fill-opacity:1;" d="M 74.0625 434.75 C 74.0625 434.75 76.5625 438.40625 79.601562 439.097656 C 79.601562 439.097656 87.011719 439.6875 82.710938 442.117188 C 79.847656 443.734375 72.773438 442.515625 68.363281 441.519531 C 67.503906 441.324219 66.796875 440.71875 66.472656 439.902344 C 66.148438 439.082031 66.25 438.15625 66.742188 437.429688 L 67.9375 435.652344 Z M 74.0625 434.75 "/>
<use xlink:href="#surface52" mask="url(#mask15)"/>
</g>
</svg>
