<svg width="100" height="100" xmlns="http://www.w3.org/2000/svg">
 <defs>
  <clipPath id="clip-path">
   <rect x="-84.999985" y="18.364014" fill="#fff" height="167.163" width="146.763" id="Rectangle_2"/>
  </clipPath>
 </defs>
 <g>
  <title>background</title>
  <rect fill="none" id="canvas_background" height="102" width="102" y="-1" x="-1"/>
 </g>
 <g>
  <title>Layer 1</title>
  <g stroke="null" id="Objects">
   <g stroke="null" id="Group_5">
    <path stroke="null" fill="#f07539" d="m55.522073,25.624062l-10.500808,2.797693a0.637243,0.61036 0 0 0 -0.320499,0.197818l-7.468551,8.603844a0.63837,0.611439 0 0 0 -0.147388,0.390602a0.622786,0.596513 0 0 0 0.028351,0.179835a0.63837,0.611439 0 0 0 0.431838,0.408046l10.602571,2.955048c-0.090686,2.152984 0.423765,4.0533 1.545418,5.616965l-3.358576,3.914468a0.63837,0.611439 0 0 0 0.053323,0.832276l3.194853,2.907212a0.63837,0.611439 0 0 0 0.910991,-0.031471l3.711557,-3.876343c0.942722,0.331076 3.29136,0.924711 6.864916,0.295109l3.797737,9.962857a0.63837,0.611439 0 0 0 1.03998,0.232167l8.461404,-7.713481a0.644002,0.616834 0 0 0 0.189258,-0.335392l1.896334,-10.160675a75.657524,72.465758 0 0 0 6.945276,-6.61451c13.252933,-14.266667 15.231691,-25.418054 15.231691,-30.795299a14.600456,13.984506 0 0 0 -0.233568,-2.787442a0.63837,0.611439 0 0 0 -0.515577,-0.46883c-0.659398,-0.107901 -16.372308,-2.428851 -36.818917,17.156256a73.369907,70.274648 0 0 0 -5.541613,6.333248zm11.429636,0.925611a6.441151,6.169418 0 1 1 6.440964,6.169418a6.440025,6.168339 0 0 1 -6.440776,-6.169059l-0.000188,-0.00036z" id="Path_32"/>
   </g>
   <g stroke="null" id="Group_7">
    <g stroke="null" clip-path="url(#clip-path)" id="Group_6">
     <path stroke="null" fill="#f07539" d="m46.560485,56.334482l-39.276078,37.619137a0.603823,0.578349 0 0 1 -0.854101,0l-0.425079,-0.407146a0.603823,0.578349 0 0 1 0,-0.818069l39.276265,-37.619137a0.603823,0.578349 0 0 1 0.854101,0l0.425079,0.407146a0.603823,0.578349 0 0 1 -0.000188,0.818069z" id="Path_33"/>
     <path stroke="null" fill="#f07539" d="m45.995339,61.124205l-39.276265,37.619316a0.603823,0.578349 0 0 1 -0.853913,0l-0.425079,-0.407146a0.60401,0.578529 0 0 1 0,-0.817889l39.276265,-37.619316a0.603823,0.578349 0 0 1 0.853913,0l0.425079,0.407146a0.60401,0.578529 0 0 1 0,0.817889z" id="Path_34"/>
     <path stroke="null" fill="#f07539" d="m41.12514,57.081156l-39.276265,37.619137a0.603823,0.578349 0 0 1 -0.853913,0l-0.425079,-0.407146a0.60401,0.578529 0 0 1 0,-0.818069l39.276265,-37.619137a0.603823,0.578349 0 0 1 0.853913,0l0.425079,0.407146a0.603823,0.578349 0 0 1 0,0.818069z" id="Path_35"/>
    </g>
   </g>
  </g>
 </g>
</svg>